<svg xmlns="http://www.w3.org/2000/svg" viewBox="0 0 463.19 126.83"><defs><style>.cls-1{fill:#231f20;}.cls-2{fill:#ed1c24;}</style></defs><g id="Layer_2" data-name="Layer 2"><g id="Calque_1" data-name="Calque 1"><path class="cls-1" d="M150.26,71.33h-2.57a14.18,14.18,0,0,1-2.62,5.61,8.56,8.56,0,0,1-6.59,3.16,6.3,6.3,0,0,1-4.27-1.59A10.11,10.11,0,0,1,131.39,74a22.57,22.57,0,0,1-1-7h1.66a16.91,16.91,0,0,0,1.79,8.42,5.39,5.39,0,0,0,4.8,3.09,7.26,7.26,0,0,0,1.61-.22A7.41,7.41,0,0,0,145,74.1a17.85,17.85,0,0,0,1.72-8.26c0-.61-.06-1.59-.17-2.93l1.66-.08c.11,1.33.17,2.31.17,2.92a30,30,0,0,1-.3,3.93h2.22Zm-10.14-8.87a1.47,1.47,0,0,0,.24-.81,1.32,1.32,0,0,0-.42-1,1.22,1.22,0,0,0-.89-.42,1.05,1.05,0,0,0-.83.35,1.31,1.31,0,0,0-.3.87,1.68,1.68,0,0,0,.45,1.16,1,1,0,0,0,1.07.33A1.24,1.24,0,0,0,140.12,62.46Z"/><path class="cls-1" d="M152.53,69.68v1.65h-2.31V69.68Z"/><path class="cls-1" d="M159.77,69.68v1.65H152.4V69.68h.13a5.79,5.79,0,0,0,3.38-.83,4.74,4.74,0,0,0,1.63-2.9,30.72,30.72,0,0,0,.53-6.13c0-.15.08-.22.26-.22l1.18.13a.21.21,0,0,1,.15.07.2.2,0,0,1,.06.15,37.61,37.61,0,0,1-.48,6.26,7.2,7.2,0,0,1-1.48,3.47ZM155.89,74a1.94,1.94,0,0,0-.18-.65,1.52,1.52,0,0,0-.52-.52,1.3,1.3,0,0,0-.7-.22,1,1,0,0,0-1.13,1.09,1.42,1.42,0,0,0,.17.74,2.21,2.21,0,0,0,.55.59,1.1,1.1,0,0,0,.67.24,1.08,1.08,0,0,0,.48-.09A1.28,1.28,0,0,0,155.89,74Zm.48,3.36a1.36,1.36,0,0,0-.42-1,1.33,1.33,0,0,0-1-.42,1.21,1.21,0,0,0-.52.13,1,1,0,0,0-.61,1,1.31,1.31,0,0,0,.17.69,1.53,1.53,0,0,0,.5.64,1.2,1.2,0,0,0,.72.24,1.21,1.21,0,0,0,1.14-1.27Z"/><path class="cls-1" d="M162,69.68v1.65h-2.31V69.68Z"/><path class="cls-1" d="M185.46,71.33h-2.1v.61a12.26,12.26,0,0,1-1.33,5.3,10.45,10.45,0,0,1-3.22,3.84,7.24,7.24,0,0,1-4.3,1.42,10.54,10.54,0,0,1-5.65-1.61,13.66,13.66,0,0,1-4.27-4.19,14.2,14.2,0,0,1-2.16-5.37H162V69.68h.27a8.58,8.58,0,0,1,.91-4.32,7.24,7.24,0,0,1,3.19-3.12,11.76,11.76,0,0,1,5.54-1.16,21.5,21.5,0,0,1,3.14.26,9.1,9.1,0,0,1,5.47,2.77,10.28,10.28,0,0,1,2.68,5.57h2.23Zm-4.54-3.68a8.9,8.9,0,0,0-2.49-3.1,7,7,0,0,0-3.48-1.5,21.35,21.35,0,0,0-2.8-.22q-4.14,0-6.19,2a6.58,6.58,0,0,0-2.05,5,10.65,10.65,0,0,0,1.42,5.17,12.16,12.16,0,0,0,3.88,4.28,9.49,9.49,0,0,0,5.43,1.68,5.73,5.73,0,0,0,3.53-1.27,8.87,8.87,0,0,0,2.66-3.42,10.89,10.89,0,0,0,1-4.65A8.67,8.67,0,0,0,180.92,67.65Z"/><path class="cls-1" d="M208.88,71.33h-2.09v.61a12.4,12.4,0,0,1-1.33,5.3,10.47,10.47,0,0,1-3.23,3.84,7.24,7.24,0,0,1-4.3,1.42,10.56,10.56,0,0,1-5.65-1.61A13.77,13.77,0,0,1,188,76.7a14.2,14.2,0,0,1-2.16-5.37h-.39V69.68h.26a8.58,8.58,0,0,1,.91-4.32,7.24,7.24,0,0,1,3.19-3.12,11.76,11.76,0,0,1,5.54-1.16,21.39,21.39,0,0,1,3.14.26A9.1,9.1,0,0,1,204,64.11a10.21,10.21,0,0,1,2.68,5.57h2.23Zm-4.54-3.68a9,9,0,0,0-2.48-3.1,7,7,0,0,0-3.49-1.5,21.35,21.35,0,0,0-2.79-.22c-2.77,0-4.83.65-6.2,2a6.62,6.62,0,0,0-2,5,10.65,10.65,0,0,0,1.42,5.17,12.16,12.16,0,0,0,3.88,4.28,9.49,9.49,0,0,0,5.43,1.68,5.78,5.78,0,0,0,3.54-1.27,9,9,0,0,0,2.66-3.42,11,11,0,0,0,1-4.65A8.67,8.67,0,0,0,204.34,67.65Z"/><path class="cls-1" d="M232,69.68v1.65H215.6c.26,1.25.4,2,.43,2.1s0,.21-.17.21l-1.22-.13a.21.21,0,0,1-.22-.17q-.22-.78-.48-2h-5.06V69.68h1.22C210,68.1,210,66.91,210,66.1c0-1.19.06-3,.18-5.45l1.65-.44c-.11,2.56-.17,4.46-.17,5.71,0,.88,0,2.13.09,3.76h1.87a32.9,32.9,0,0,1-.43-5.11,21.15,21.15,0,0,1,1.28-7.63,11.71,11.71,0,0,1,3.62-5.13A8.59,8.59,0,0,1,223.49,50a7.87,7.87,0,0,1,4.56,1.31,8.36,8.36,0,0,1,2.88,3.47,11.26,11.26,0,0,1,1,4.69,12.22,12.22,0,0,1-1.44,5.78,10.42,10.42,0,0,1-4.1,4.25l-.35.18Zm-15.18,0H217a34.77,34.77,0,0,0,4.93-.4A11.11,11.11,0,0,0,225.76,68a7.93,7.93,0,0,0,3.31-3.49,10.61,10.61,0,0,0,1.14-4.84,9.74,9.74,0,0,0-.79-3.92,6.91,6.91,0,0,0-2.31-2.95,6,6,0,0,0-3.62-1.11A7,7,0,0,0,219,53.27a10.44,10.44,0,0,0-3,4.54,19.69,19.69,0,0,0-1.07,6.76,40.85,40.85,0,0,0,.44,5.11Z"/><path class="cls-1" d="M255.42,71.33h-2.09v.61a12.4,12.4,0,0,1-1.33,5.3,10.47,10.47,0,0,1-3.23,3.84,7.24,7.24,0,0,1-4.3,1.42,10.56,10.56,0,0,1-5.65-1.61,13.77,13.77,0,0,1-4.27-4.19,14.2,14.2,0,0,1-2.16-5.37H232V69.68h.26a8.58,8.58,0,0,1,.91-4.32,7.24,7.24,0,0,1,3.19-3.12,11.76,11.76,0,0,1,5.54-1.16,21.39,21.39,0,0,1,3.14.26,9.1,9.1,0,0,1,5.47,2.77,10.29,10.29,0,0,1,2.69,5.57h2.22Zm-4.54-3.68a9,9,0,0,0-2.48-3.1,7,7,0,0,0-3.49-1.5,21.35,21.35,0,0,0-2.79-.22c-2.77,0-4.83.65-6.2,2a6.58,6.58,0,0,0-2,5,10.65,10.65,0,0,0,1.42,5.17,12.16,12.16,0,0,0,3.88,4.28,9.49,9.49,0,0,0,5.43,1.68,5.73,5.73,0,0,0,3.53-1.27,8.89,8.89,0,0,0,2.67-3.42,11,11,0,0,0,1-4.65A8.67,8.67,0,0,0,250.88,67.65Z"/><path class="cls-1" d="M260.74,69.68v1.65h-5.37V69.68h2.06q.6-7.25.61-20.59,0-4.5-.05-6.81c0-.08.06-.16.18-.22l1.17-.3h.05c.06,0,.11,0,.17.11a.43.43,0,0,1,.09.28q0,2.31,0,6.89,0,13.44-.61,20.64Z"/><path class="cls-1" d="M263.88,48.91q0,7.11-.22,13.13c-.14,4-.33,7.11-.56,9.29h-2.4V69.68h.91q.61-7.25.61-20.59,0-4.5,0-6.81a.27.27,0,0,1,.17-.22l1.18-.3h0a.26.26,0,0,1,.18.11.43.43,0,0,1,.09.28C263.87,43.69,263.88,46,263.88,48.91Z"/><path class="cls-1" d="M295.37,69.68v1.65h-2.31a8.48,8.48,0,0,1-1.87-.22,20.45,20.45,0,0,1,.34,3.49,10,10,0,0,1-2.29,6.94,8.18,8.18,0,0,1-6.39,2.53,10.66,10.66,0,0,1-5.16-1.33,13.3,13.3,0,0,1-4.3-3.75,16.65,16.65,0,0,1-2.71-5.56l1.57-.44a14.22,14.22,0,0,0,4.13,6.83,9.46,9.46,0,0,0,6.47,2.59,6.57,6.57,0,0,0,5.24-2.16A8.71,8.71,0,0,0,290,74.34a18.87,18.87,0,0,0-.39-3.66,11.35,11.35,0,0,1-1.79-.83l.88-1.4a7.16,7.16,0,0,0,2.09.9,9,9,0,0,0,2.35.33ZM273.39,86a1.39,1.39,0,0,1,.72.2,1.3,1.3,0,0,1,.5.54,1.4,1.4,0,0,1,.09.4,1.09,1.09,0,0,1-.29.72,2,2,0,0,1-.72.5,1.32,1.32,0,0,1-.56.13,1,1,0,0,1-1.09-.7,1.27,1.27,0,0,1-.05-.39,1.51,1.51,0,0,1,.22-.79,1.29,1.29,0,0,1,.66-.52A1.15,1.15,0,0,1,273.39,86Zm3.4-.17a1.27,1.27,0,0,1,.7.19,1.36,1.36,0,0,1,.48.59,1.43,1.43,0,0,1,.09.39,1,1,0,0,1-.29.72,1.89,1.89,0,0,1-.72.51,2.86,2.86,0,0,1-.56.08,1.21,1.21,0,0,1-.79-.28,1,1,0,0,1-.35-.81,1.28,1.28,0,0,1,.24-.74,1.45,1.45,0,0,1,.63-.52A1.25,1.25,0,0,1,276.79,85.86Z"/><path class="cls-1" d="M327.69,71.33h-3.84a6.06,6.06,0,0,1-2,1.22,8,8,0,0,1-3,.57,6.85,6.85,0,0,1-4-1.24A8.61,8.61,0,0,1,312,68.41a5.73,5.73,0,0,1-1.65,2.38,3.52,3.52,0,0,1-2.23.85,3,3,0,0,1-1.87-.66,4.33,4.33,0,0,1-1.4-1.92,5,5,0,0,1-3.05,1.86,23.64,23.64,0,0,1-4.71.41h-1.79V69.68H297a24.68,24.68,0,0,0,3.55-.22,5.32,5.32,0,0,0,2.47-1A3.51,3.51,0,0,0,304.31,66l1.66-.18a6,6,0,0,0,.7,3,1.87,1.87,0,0,0,1.61,1.07,2.29,2.29,0,0,0,1.9-1.37,7.43,7.43,0,0,0,.81-3.77l-.05-.88c0-.17.08-.26.22-.26h.09l1.22.18a.15.15,0,0,1,.17.17v.09a8.85,8.85,0,0,0,1.92,5.41,5.44,5.44,0,0,0,4.28,2.05,6.48,6.48,0,0,0,2.48-.48,5.88,5.88,0,0,0,3.14-3.38,16.14,16.14,0,0,0,1.14-6.48,31.3,31.3,0,0,0-.61-6.06c0-.09,0-.16.13-.22l1.18-.48a.25.25,0,0,1,.21,0,.18.18,0,0,1,.09.17,35.62,35.62,0,0,1,.66,6.5,16.15,16.15,0,0,1-2,8.6h2.44Z"/><path class="cls-1" d="M333.49,59.6l1.18.13a.24.24,0,0,1,.22.22,31.56,31.56,0,0,1-.66,7.06,5.3,5.3,0,0,1-2.11,3.36,8.3,8.3,0,0,1-4.43,1V69.68a5.77,5.77,0,0,0,3.38-.83,4.75,4.75,0,0,0,1.64-2.9,30.87,30.87,0,0,0,.52-6.13C333.23,59.67,333.32,59.6,333.49,59.6ZM330.9,58a1.42,1.42,0,0,0,.24-.8,1.32,1.32,0,0,0-.42-1,1.22,1.22,0,0,0-.89-.42,1.05,1.05,0,0,0-.83.35,1.28,1.28,0,0,0-.3.87,1.69,1.69,0,0,0,.45,1.16,1,1,0,0,0,1.07.33A1.21,1.21,0,0,0,330.9,58Z"/><path class="cls-1" d="M357.05,71.33h-4.71a37,37,0,0,1-5,3.4,17.77,17.77,0,0,1-4.05,1.88l-.44-1.44a18.26,18.26,0,0,0,3.34-1.5,40.55,40.55,0,0,0,3.86-2.42,18.12,18.12,0,0,1-2.18.17,21.09,21.09,0,0,1-3.84-.39,8.92,8.92,0,0,1-5.65-3.47,10.46,10.46,0,0,1-2.07-6.43,12.75,12.75,0,0,1,1.26-5.65A10.52,10.52,0,0,1,341,51.4a7.3,7.3,0,0,1,4.52-1.4,10.36,10.36,0,0,1,5.91,2.12,13.67,13.67,0,0,1,4.1,5,13.47,13.47,0,0,1,1.46,6,8.69,8.69,0,0,1-1.48,5,10.74,10.74,0,0,1-1.31,1.58h2.88Zm-9.47-1.61c2.59,0,4.53-.66,5.82-2a6.78,6.78,0,0,0,2-5A11.1,11.1,0,0,0,354,57.7a12.08,12.08,0,0,0-3.62-4.25,9.16,9.16,0,0,0-5.15-1.83,5.44,5.44,0,0,0-3.42,1,8.66,8.66,0,0,0-2.71,3.17,11.55,11.55,0,0,0-1.28,4.42l-.05.7a9,9,0,0,0,.85,3.82,8.67,8.67,0,0,0,2.34,3,7.21,7.21,0,0,0,3.27,1.57A19.74,19.74,0,0,0,347.58,69.72Z"/><path class="cls-1" d="M359.05,69.68v1.65h-2.31V69.68Z"/><path class="cls-1" d="M366.29,69.68v1.65h-7.37V69.68h.13a5.77,5.77,0,0,0,3.38-.83,4.75,4.75,0,0,0,1.64-2.9,30.87,30.87,0,0,0,.52-6.13c0-.15.09-.22.26-.22l1.18.13a.24.24,0,0,1,.22.22,37.61,37.61,0,0,1-.48,6.26,7.3,7.3,0,0,1-1.48,3.47Zm-4.23-18.89a1.33,1.33,0,0,0-.74-.22,1.49,1.49,0,0,0-.48.09,1.6,1.6,0,0,0-.76.72,1,1,0,0,0-.11.93,1.07,1.07,0,0,0,1.13.75,1.55,1.55,0,0,0,1.2-.5,1.18,1.18,0,0,0,.29-1.16A1.38,1.38,0,0,0,362.06,50.79Zm3.43,0a1.5,1.5,0,0,0-.77-.2,1.08,1.08,0,0,0-.48.09,1.31,1.31,0,0,0-1,1.26,1.29,1.29,0,0,0,.09.39,1,1,0,0,0,1.09.7,1.34,1.34,0,0,0,.52-.08,1.57,1.57,0,0,0,.83-.62,1,1,0,0,0,.13-1A1,1,0,0,0,365.49,50.77Z"/><path class="cls-1" d="M368.56,69.68v1.65h-2.31V69.68Z"/><path class="cls-1" d="M371.7,48.91q0,7.11-.22,13.13c-.14,4-.33,7.11-.56,9.29h-2.4V69.68h.91q.61-7.25.61-20.59,0-4.5,0-6.81a.27.27,0,0,1,.17-.22l1.18-.3h0a.26.26,0,0,1,.17.11.43.43,0,0,1,.09.28C371.69,43.69,371.7,46,371.7,48.91Z"/><path class="cls-1" d="M372.53,71.33q.35-3.31.57-9.33t.21-13c0-2.94,0-5.16,0-6.68,0-.08.06-.16.18-.22l1.17-.3h.05a.26.26,0,0,1,.17.11.43.43,0,0,1,.09.28c0,1.54,0,3.8,0,6.76Q375,56,374.75,62c-.14,4-.33,7.11-.56,9.29Z"/><path class="cls-1" d="M413.83,71.33h-9.68a5.56,5.56,0,0,1-.87,0,6.76,6.76,0,0,1-.92,0H392.24a26.62,26.62,0,0,1-5.6-.65,19.49,19.49,0,0,1-5-2.14l.66-1.7A15.51,15.51,0,0,0,387,69a29.74,29.74,0,0,0,5.78.68h3.49A9.1,9.1,0,0,1,393,66a11.24,11.24,0,0,1-1.16-5,12.6,12.6,0,0,1,1.2-5.49,10.24,10.24,0,0,1,3.25-4A7.38,7.38,0,0,1,400.71,50a10.6,10.6,0,0,1,6.21,2,14.11,14.11,0,0,1,4.43,5A12.9,12.9,0,0,1,413,63a9.08,9.08,0,0,1-.8,3.8,7.05,7.05,0,0,1-2.47,2.88h4.14Zm-23.27-23a1.67,1.67,0,0,1-.45-1.18,1.34,1.34,0,0,1,.28-.85,1,1,0,0,1,.81-.37,1.32,1.32,0,0,1,1,.41,1.4,1.4,0,0,1,.39,1,1.47,1.47,0,0,1-.24.81,1.19,1.19,0,0,1-.68.5A1,1,0,0,1,390.56,48.35Zm3.73,16.46a8.9,8.9,0,0,0,2.49,3.1,7,7,0,0,0,3.49,1.5,21.09,21.09,0,0,0,2.79.22q4.14,0,6.2-2a6.61,6.61,0,0,0,2-5,10.74,10.74,0,0,0-1.41-5.17A12.25,12.25,0,0,0,406,53.25a9.47,9.47,0,0,0-5.43-1.68A5.76,5.76,0,0,0,397,52.84a9,9,0,0,0-2.66,3.42,10.88,10.88,0,0,0-1,4.65A8.69,8.69,0,0,0,394.29,64.81Z"/><path class="cls-1" d="M416.1,69.68v1.65h-2.31V69.68Z"/><path class="cls-1" d="M419.24,48.91Q419.24,56,419,62c-.15,4-.34,7.11-.57,9.29h-2.4V69.68H417q.61-7.25.62-20.59,0-4.5,0-6.81c0-.08.06-.16.18-.22l1.17-.3h.05c.06,0,.11,0,.17.11a.43.43,0,0,1,.09.28C419.23,43.69,419.24,46,419.24,48.91Z"/><path class="cls-1" d="M424,69.68v1.65h-3.93q.35-3.31.57-9.33t.22-13c0-2.94,0-5.16-.05-6.68,0-.08.06-.16.18-.22l1.17-.3h0c.06,0,.11,0,.17.11a.43.43,0,0,1,.09.28q0,2.31,0,6.89,0,13.44-.61,20.64Z"/><path class="cls-1" d="M426.26,69.68v1.65H424V69.68Z"/><path class="cls-1" d="M443.8,69.68v1.65h-2.05q-2.58.09-8.11.09-5.28,0-7.38-.09V69.68c2.33.08,4.95.13,7.86.13,2.06,0,3.59,0,4.58,0,.32-2,.55-3.53.71-4.66a24.16,24.16,0,0,0,.24-3.36,10.44,10.44,0,0,0-2.48-7.18q-2.49-2.81-8.94-4.16-.23-.09-.18-.27l.31-1.22c.09-.14.17-.2.26-.17q7.2,1.48,10,4.75a12.22,12.22,0,0,1,2.77,8.16,26.78,26.78,0,0,1-.24,3.51q-.24,1.82-.72,4.56l1.09,0Z"/><path class="cls-1" d="M451,69.68v1.65h-7.37V69.68h.13a5.79,5.79,0,0,0,3.38-.83,4.74,4.74,0,0,0,1.63-2.9,30.72,30.72,0,0,0,.53-6.13c0-.15.09-.22.26-.22l1.18.13a.19.19,0,0,1,.15.07A.2.2,0,0,1,451,60a36.72,36.72,0,0,1-.47,6.26A7.3,7.3,0,0,1,449,69.68Zm-4.23-18.89a1.36,1.36,0,0,0-.74-.22,1.45,1.45,0,0,0-.48.09,1.62,1.62,0,0,0-.77.72,1,1,0,0,0-.11.93,1.09,1.09,0,0,0,1.14.75,1.58,1.58,0,0,0,1.2-.5,1.18,1.18,0,0,0,.28-1.16A1.36,1.36,0,0,0,446.81,50.79Zm3.42,0a1.46,1.46,0,0,0-.76-.2,1.08,1.08,0,0,0-.48.09,1.24,1.24,0,0,0-.7.48,1.13,1.13,0,0,0-.17,1.17,1,1,0,0,0,1.09.7,1.38,1.38,0,0,0,.52-.08,1.57,1.57,0,0,0,.83-.62,1,1,0,0,0,.13-1A1,1,0,0,0,450.23,50.77Z"/><path class="cls-1" d="M453.31,69.68v1.65H451V69.68Z"/><path class="cls-1" d="M456.45,48.91q0,7.11-.22,13.13c-.15,4-.34,7.11-.57,9.29h-2.4V69.68h.92q.6-7.25.61-20.59,0-4.5-.05-6.81c0-.08.06-.16.18-.22l1.18-.3h0a.26.26,0,0,1,.18.11.49.49,0,0,1,.08.28C456.43,43.69,456.45,46,456.45,48.91Z"/><path class="cls-1" d="M457.28,71.33q.35-3.31.56-9.33t.22-13c0-2.94,0-5.16,0-6.68a.26.26,0,0,1,.17-.22l1.18-.3h0a.26.26,0,0,1,.18.11.49.49,0,0,1,.08.28c0,1.54.05,3.8.05,6.76q0,7.11-.22,13.13c-.15,4-.34,7.11-.57,9.29Z"/><path class="cls-2" d="M126.79,114.91l4.15-15.27h7.41l4.15,15.27h-4.15l-.76-3.06H131.7l-.76,3.06Zm5.78-6.55h4.15l-1.31-5h-1.53Z"/><path class="cls-1" d="M143.48,114.91V99.64h1.74v13.63h2.51v1.64Z"/><path class="cls-1" d="M148.93,114.91V99.64h1.75v13.63h2.5v1.64Z"/><path class="cls-1" d="M154.4,101.58a1.15,1.15,0,0,1-.34-.85,1.16,1.16,0,0,1,.34-.85,1.22,1.22,0,0,1,1.71,0,1.16,1.16,0,0,1,.34.85,1.15,1.15,0,0,1-.34.85,1.22,1.22,0,0,1-1.71,0Zm0,13.33V104h1.75v10.91Z"/><path class="cls-1" d="M159.51,113.5a6.11,6.11,0,0,1,0-8.09,4.89,4.89,0,0,1,3.7-1.63,4.75,4.75,0,0,1,2.33.53,4.18,4.18,0,0,1,1.38,1.13l.2.33h0V104h1.75v10.91h-1.75v-1.75h0l-.2.31a3.75,3.75,0,0,1-1.35,1.12,4.76,4.76,0,0,1-2.36.54A4.89,4.89,0,0,1,159.51,113.5Zm1.27-6.94a4.53,4.53,0,0,0,0,5.8,3.67,3.67,0,0,0,5.3,0,4.5,4.5,0,0,0,0-5.8,3.65,3.65,0,0,0-5.3,0Z"/><path class="cls-1" d="M171.39,114.91V104h1.75v1.64h0a3.37,3.37,0,0,1,.85-.92,4.51,4.51,0,0,1,2.84-.94A4.15,4.15,0,0,1,180,105a4.8,4.8,0,0,1,1.19,3.43v6.44h-1.75v-6.33a3.25,3.25,0,0,0-.78-2.36,2.92,2.92,0,0,0-2.16-.8,3.2,3.2,0,0,0-2.44,1,3.62,3.62,0,0,0-.94,2.61v5.89Z"/><path class="cls-1" d="M184.52,113.51a6,6,0,0,1,0-8.11,5.19,5.19,0,0,1,3.88-1.62,5.25,5.25,0,0,1,4.26,1.92,5.63,5.63,0,0,1,1,1.9h-1.75a3.56,3.56,0,0,0-.72-1.09,3.64,3.64,0,0,0-2.77-1.09,3.47,3.47,0,0,0-2.65,1.14,4.09,4.09,0,0,0-1.05,2.9,4,4,0,0,0,1.09,2.9,3.51,3.51,0,0,0,2.61,1.13,3.63,3.63,0,0,0,2.86-1.2,3.33,3.33,0,0,0,.74-1.2h1.75a5.46,5.46,0,0,1-1,2,5.35,5.35,0,0,1-4.34,2A5.19,5.19,0,0,1,184.52,113.51Z"/><path class="cls-1" d="M196.32,113.51a6,6,0,0,1,0-8.11,5.33,5.33,0,0,1,4-1.62,5.45,5.45,0,0,1,5.56,5.57V110h-9.38a3.89,3.89,0,0,0,1.25,2.51,3.68,3.68,0,0,0,2.57,1,4.15,4.15,0,0,0,2.77-1,3.64,3.64,0,0,0,.83-1h1.74a5.7,5.7,0,0,1-1.11,1.81,5.6,5.6,0,0,1-4.23,1.79A5.33,5.33,0,0,1,196.32,113.51Zm.2-5H204a3.54,3.54,0,0,0-1.2-2.17,3.71,3.71,0,0,0-2.51-.88,3.78,3.78,0,0,0-2.53.88A3.59,3.59,0,0,0,196.52,108.47Z"/><path class="cls-2" d="M212,103.35V99.64h13.63v3.71h-4.8v11.56h-4V103.35Z"/><path class="cls-1" d="M226.79,110.44V104h1.74v6.33a3.21,3.21,0,0,0,.79,2.36,2.89,2.89,0,0,0,2.16.8,3.22,3.22,0,0,0,2.44-1,3.66,3.66,0,0,0,.94-2.61V104h1.74v10.91h-1.74v-1.64h0a3.39,3.39,0,0,1-.87.94,4.43,4.43,0,0,1-2.81.92,4.15,4.15,0,0,1-3.17-1.26A4.74,4.74,0,0,1,226.79,110.44Z"/><path class="cls-1" d="M239.11,114.91V104h1.74v1.64h0a3.41,3.41,0,0,1,.86-.92,4.49,4.49,0,0,1,2.83-.94,4.15,4.15,0,0,1,3.17,1.26,4.76,4.76,0,0,1,1.19,3.43v6.44h-1.74v-6.33a3.21,3.21,0,0,0-.79-2.36,2.89,2.89,0,0,0-2.16-.8,3.22,3.22,0,0,0-2.44,1,3.66,3.66,0,0,0-.94,2.61v5.89Z"/><path class="cls-1" d="M251.34,101.58a1.15,1.15,0,0,1-.35-.85,1.17,1.17,0,0,1,.35-.85,1.19,1.19,0,0,1,.85-.35,1.15,1.15,0,0,1,.85.35,1.13,1.13,0,0,1,.35.85,1.12,1.12,0,0,1-.35.85,1.15,1.15,0,0,1-.85.35A1.19,1.19,0,0,1,251.34,101.58Zm0,13.33V104h1.75v10.91Z"/><path class="cls-1" d="M254.81,111.53h1.85a3,3,0,0,0,.64,1,3.42,3.42,0,0,0,2.53,1,3.65,3.65,0,0,0,2.06-.46,1.38,1.38,0,0,0,.66-1.18.94.94,0,0,0-.27-.67,2.24,2.24,0,0,0-.88-.5c-.41-.15-.77-.26-1.08-.34s-.77-.18-1.37-.3q-3.58-.74-3.59-3.2a2.68,2.68,0,0,1,1.09-2.17,4.7,4.7,0,0,1,3.05-.89,4.85,4.85,0,0,1,3.86,1.64,5.08,5.08,0,0,1,.83,1.64h-1.85a2.91,2.91,0,0,0-.57-.81,3.64,3.64,0,0,0-4-.39,1.21,1.21,0,0,0-.62,1,.92.92,0,0,0,.27.67,2.34,2.34,0,0,0,.89.51q.6.21,1.08.33c.31.08.76.18,1.36.3q3.6.73,3.6,3.2a2.88,2.88,0,0,1-1.18,2.34,5.17,5.17,0,0,1-3.29.94,5,5,0,0,1-4.1-1.79A5.43,5.43,0,0,1,254.81,111.53Z"/><path class="cls-1" d="M266.17,101.58a1.15,1.15,0,0,1-.34-.85,1.16,1.16,0,0,1,.34-.85,1.19,1.19,0,0,1,.85-.35,1.15,1.15,0,0,1,.85.35,1.13,1.13,0,0,1,.35.85,1.12,1.12,0,0,1-.35.85,1.15,1.15,0,0,1-.85.35A1.19,1.19,0,0,1,266.17,101.58Zm0,13.33V104h1.75v10.91Z"/><path class="cls-1" d="M271.34,113.51a6,6,0,0,1,0-8.11,5.55,5.55,0,0,1,9.53,3.95V110h-9.38a3.93,3.93,0,0,0,1.25,2.51,3.68,3.68,0,0,0,2.57,1,4.15,4.15,0,0,0,2.77-1,3.47,3.47,0,0,0,.83-1h1.74a5.7,5.7,0,0,1-1.11,1.81,5.6,5.6,0,0,1-4.23,1.79A5.35,5.35,0,0,1,271.34,113.51Zm.2-5H279a3.54,3.54,0,0,0-1.2-2.17,3.71,3.71,0,0,0-2.51-.88,3.78,3.78,0,0,0-2.53.88A3.59,3.59,0,0,0,271.54,108.47Z"/><path class="cls-1" d="M282.73,114.91V104h1.74v1.64h0a3.37,3.37,0,0,1,.85-.92,4.51,4.51,0,0,1,2.84-.94,4.15,4.15,0,0,1,3.17,1.26,4.8,4.8,0,0,1,1.19,3.43v6.44H290.8v-6.33a3.25,3.25,0,0,0-.79-2.36,2.89,2.89,0,0,0-2.16-.8,3.2,3.2,0,0,0-2.44,1,3.62,3.62,0,0,0-.94,2.61v5.89Z"/><path class="cls-1" d="M294.94,114.91V104h1.74v1.64h0a3.41,3.41,0,0,1,.86-.92,4.49,4.49,0,0,1,2.83-.94,4.15,4.15,0,0,1,3.17,1.26,4.76,4.76,0,0,1,1.19,3.43v6.44H303v-6.33a3.21,3.21,0,0,0-.79-2.36,2.89,2.89,0,0,0-2.16-.8,3.22,3.22,0,0,0-2.44,1,3.66,3.66,0,0,0-.94,2.61v5.89Z"/><path class="cls-1" d="M308.09,113.51a6,6,0,0,1,0-8.11,5.33,5.33,0,0,1,4-1.62,5.45,5.45,0,0,1,5.56,5.57V110h-9.38a3.89,3.89,0,0,0,1.25,2.51,3.68,3.68,0,0,0,2.57,1,4.17,4.17,0,0,0,2.77-1,3.64,3.64,0,0,0,.83-1h1.74a5.7,5.7,0,0,1-1.11,1.81,5.6,5.6,0,0,1-4.23,1.79A5.33,5.33,0,0,1,308.09,113.51Zm.2-5h7.48a3.54,3.54,0,0,0-1.2-2.17,3.71,3.71,0,0,0-2.51-.88,3.78,3.78,0,0,0-2.53.88A3.59,3.59,0,0,0,308.29,108.47Z"/><path class="cls-1" d="M325.91,113.5a6.11,6.11,0,0,1,0-8.09,4.91,4.91,0,0,1,3.71-1.63,4.8,4.8,0,0,1,2.33.53,3.93,3.93,0,0,1,1.37,1.11l.2.33h0V99.64h1.75v15.27h-1.75v-1.75h0l-.2.31a3.75,3.75,0,0,1-1.35,1.12,4.75,4.75,0,0,1-2.35.54A4.91,4.91,0,0,1,325.91,113.5Zm1.27-6.94a4.53,4.53,0,0,0,0,5.8,3.67,3.67,0,0,0,5.3,0,4.5,4.5,0,0,0,0-5.8,3.65,3.65,0,0,0-5.3,0Z"/><path class="cls-1" d="M338.73,113.51a6,6,0,0,1,0-8.11,5.55,5.55,0,0,1,9.53,3.95V110h-9.38a3.89,3.89,0,0,0,1.25,2.51,3.68,3.68,0,0,0,2.57,1,4.15,4.15,0,0,0,2.77-1,3.47,3.47,0,0,0,.83-1H348a5.7,5.7,0,0,1-1.11,1.81,5.6,5.6,0,0,1-4.23,1.79A5.35,5.35,0,0,1,338.73,113.51Zm.2-5h7.48a3.54,3.54,0,0,0-1.2-2.17,3.71,3.71,0,0,0-2.51-.88,3.78,3.78,0,0,0-2.53.88A3.59,3.59,0,0,0,338.93,108.47Z"/><path class="cls-1" d="M349.35,111.53h1.86a3,3,0,0,0,.63,1,3.44,3.44,0,0,0,2.53,1,3.63,3.63,0,0,0,2.06-.46,1.38,1.38,0,0,0,.66-1.18.94.94,0,0,0-.27-.67,2.17,2.17,0,0,0-.88-.5c-.41-.15-.77-.26-1.08-.34s-.77-.18-1.36-.3q-3.6-.74-3.6-3.2a2.68,2.68,0,0,1,1.09-2.17,4.7,4.7,0,0,1,3.05-.89,4.44,4.44,0,0,1,4.69,3.28h-1.85a2.72,2.72,0,0,0-.57-.81,3.64,3.64,0,0,0-4.05-.39,1.21,1.21,0,0,0-.62,1,.92.92,0,0,0,.27.67,2.42,2.42,0,0,0,.89.51q.6.21,1.08.33c.31.08.76.18,1.36.3q3.6.73,3.6,3.2a2.88,2.88,0,0,1-1.18,2.34,5.17,5.17,0,0,1-3.29.94,5,5,0,0,1-4.1-1.79A5.62,5.62,0,0,1,349.35,111.53Z"/><path class="cls-2" d="M366.14,114.91V99.64h5.91a8.64,8.64,0,0,1,6.13,2.19,7.46,7.46,0,0,1,0,10.89,8.64,8.64,0,0,1-6.13,2.19Zm4-3.71H372a4.4,4.4,0,0,0,3.14-1,4.25,4.25,0,0,0,0-5.75,4.4,4.4,0,0,0-3.14-1.05h-1.85Z"/><path class="cls-1" d="M383.22,113.51a6,6,0,0,1,0-8.11,5.55,5.55,0,0,1,9.53,3.95V110h-9.38a3.89,3.89,0,0,0,1.25,2.51,3.68,3.68,0,0,0,2.57,1,4.15,4.15,0,0,0,2.77-1,3.47,3.47,0,0,0,.83-1h1.74a5.7,5.7,0,0,1-1.11,1.81,5.6,5.6,0,0,1-4.23,1.79A5.35,5.35,0,0,1,383.22,113.51Zm.2-5h7.48a3.54,3.54,0,0,0-1.2-2.17,3.71,3.71,0,0,0-2.51-.88,3.78,3.78,0,0,0-2.53.88A3.59,3.59,0,0,0,383.42,108.47Z"/><path class="cls-1" d="M393.84,111.53h1.86a3,3,0,0,0,.63,1,3.44,3.44,0,0,0,2.53,1,3.65,3.65,0,0,0,2.06-.46,1.38,1.38,0,0,0,.66-1.18.94.94,0,0,0-.27-.67,2.24,2.24,0,0,0-.88-.5c-.41-.15-.77-.26-1.08-.34s-.77-.18-1.36-.3q-3.6-.74-3.6-3.2a2.68,2.68,0,0,1,1.09-2.17,4.7,4.7,0,0,1,3-.89,4.84,4.84,0,0,1,3.86,1.64,5.08,5.08,0,0,1,.83,1.64h-1.85a2.72,2.72,0,0,0-.57-.81,3.64,3.64,0,0,0-4.05-.39,1.21,1.21,0,0,0-.62,1,.92.92,0,0,0,.27.67,2.42,2.42,0,0,0,.89.51c.41.14.76.25,1.08.33s.76.18,1.36.3q3.6.73,3.6,3.2a2.88,2.88,0,0,1-1.18,2.34,5.17,5.17,0,0,1-3.29.94,5,5,0,0,1-4.1-1.79A5.43,5.43,0,0,1,393.84,111.53Z"/><path class="cls-1" d="M405.2,101.58a1.15,1.15,0,0,1-.34-.85,1.16,1.16,0,0,1,.34-.85,1.22,1.22,0,0,1,1.71,0,1.16,1.16,0,0,1,.34.85,1.15,1.15,0,0,1-.34.85,1.22,1.22,0,0,1-1.71,0Zm0,13.33V104h1.75v10.91Z"/><path class="cls-1" d="M410.31,113.5a6.11,6.11,0,0,1,0-8.09,4.91,4.91,0,0,1,3.71-1.63,4.8,4.8,0,0,1,2.33.53,3.93,3.93,0,0,1,1.37,1.11l.2.33h0V104h1.75v15h-9.38v-1.63h7.63v-4.26h0l-.2.31a3.75,3.75,0,0,1-1.35,1.12,4.72,4.72,0,0,1-2.35.54A4.91,4.91,0,0,1,410.31,113.5Zm1.27-6.94a4.53,4.53,0,0,0,0,5.8,3.67,3.67,0,0,0,5.3,0,4.5,4.5,0,0,0,0-5.8,3.65,3.65,0,0,0-5.3,0Z"/><path class="cls-1" d="M422.19,114.91V104h1.75v1.64h0a3.37,3.37,0,0,1,.85-.92,4.49,4.49,0,0,1,2.84-.94,4.15,4.15,0,0,1,3.17,1.26,4.8,4.8,0,0,1,1.19,3.43v6.44h-1.75v-6.33a3.25,3.25,0,0,0-.78-2.36,2.92,2.92,0,0,0-2.16-.8,3.22,3.22,0,0,0-2.45,1,3.66,3.66,0,0,0-.93,2.61v5.89Z"/><path class="cls-1" d="M435.34,113.51a6,6,0,0,1,0-8.11,5.55,5.55,0,0,1,9.53,3.95V110H435.5a3.88,3.88,0,0,0,1.24,2.51,3.68,3.68,0,0,0,2.57,1,4.15,4.15,0,0,0,2.77-1,3.47,3.47,0,0,0,.83-1h1.75a5.91,5.91,0,0,1-1.12,1.81,5.6,5.6,0,0,1-4.23,1.79A5.35,5.35,0,0,1,435.34,113.51Zm.2-5H443a3.54,3.54,0,0,0-1.2-2.17,3.69,3.69,0,0,0-2.51-.88,3.8,3.8,0,0,0-2.53.88A3.64,3.64,0,0,0,435.54,108.47Z"/><path class="cls-1" d="M446.73,114.91V104h1.74v1.75h0a3.43,3.43,0,0,1,.75-.92,3.84,3.84,0,0,1,2.61-.94h1.31v1.75h-1.31a3.25,3.25,0,0,0-3.38,3.38v5.89Z"/><path class="cls-1" d="M453.71,111.53h1.85a3,3,0,0,0,.63,1,3.45,3.45,0,0,0,2.53,1,3.63,3.63,0,0,0,2.06-.46,1.37,1.37,0,0,0,.67-1.18.94.94,0,0,0-.27-.67,2.29,2.29,0,0,0-.89-.5,10,10,0,0,0-1.08-.34c-.31-.08-.76-.18-1.36-.3q-3.6-.74-3.6-3.2a2.71,2.71,0,0,1,1.09-2.17,4.75,4.75,0,0,1,3.06-.89,4.87,4.87,0,0,1,3.86,1.64,5.05,5.05,0,0,1,.82,1.64h-1.85a2.72,2.72,0,0,0-.57-.81,3.62,3.62,0,0,0-4-.39,1.19,1.19,0,0,0-.62,1,.92.92,0,0,0,.27.67,2.29,2.29,0,0,0,.88.51q.62.21,1.08.33c.31.08.77.18,1.37.3q3.58.73,3.59,3.2a2.9,2.9,0,0,1-1.17,2.34,5.22,5.22,0,0,1-3.3.94,5,5,0,0,1-4.1-1.79A5.41,5.41,0,0,1,453.71,111.53Z"/><path class="cls-2" d="M37.83,24.58l-.39,68.48,12.07.06q22.26.13,32.11-8.28t9.94-25.71q.1-17.35-10.37-25.85T47.68,24.63Z"/><path class="cls-2" d="M34.08,6.85Q62,7,80.25,13.1a63.36,63.36,0,0,0-67-6.37Z"/><path class="cls-2" d="M35.59,111.41,0,111.21A63.39,63.39,0,0,0,92.73,101Q73.5,111.62,35.59,111.41Z"/></g></g></svg>